HIERARCHY
ROOT hip
{
  OFFSET 0 0 0
  CHANNELS 6 Xposition Yposition Zposition Zrotation Yrotation Xrotation
  JOINT abdomen
  {
    OFFSET 0 20.6881 -0.73152
    CHANNELS 3 Zrotation Xrotation Yrotation
    JOINT chest
    {
      OFFSET 0 11.7043 -0.48768
      CHANNELS 3 Zrotation Xrotation Yrotation
      JOINT neck
      {
        OFFSET 0 22.1894 -2.19456
        CHANNELS 3 Zrotation Xrotation Yrotation
        JOINT head
        {
          OFFSET -0.24384 7.07133 1.2192
          CHANNELS 3 Zrotation Xrotation Yrotation
          JOINT leftEye
          {
            OFFSET 4.14528 8.04674 8.04672
            CHANNELS 3 Zrotation Xrotation Yrotation
            End Site
            {
              OFFSET 1 0 0
            }
          }
          JOINT rightEye
          {
            OFFSET -3.6576 8.04674 8.04672
            CHANNELS 3 Zrotation Xrotation Yrotation
            End Site
            {
              OFFSET 1 0 0
            }
          }
        }
      }
      JOINT rCollar
      {
        OFFSET -2.68224 19.2634 -4.8768
        CHANNELS 3 Zrotation Xrotation Yrotation
        JOINT rShldr
        {
          OFFSET -8.77824 -1.95073 1.46304
          CHANNELS 3 Zrotation Xrotation Yrotation
          JOINT rForeArm
          {
            OFFSET -28.1742 -1.7115 0.48768
            CHANNELS 3 Zrotation Xrotation Yrotation
            JOINT rHand
            {
              OFFSET -22.5879 0.773209 7.07136
              CHANNELS 3 Zrotation Xrotation Yrotation
              JOINT rThumb1
              {
                OFFSET -1.2192 -0.487915 3.41376
                CHANNELS 3 Zrotation Xrotation Yrotation
                JOINT rThumb2
                {
                  OFFSET -3.37035 -0.52449 3.41376
                  CHANNELS 3 Zrotation Xrotation Yrotation
                  End Site
                  {
                    OFFSET -1.78271 -1.18214 1.43049
                  }
                }
              }
              JOINT rIndex1
              {
                OFFSET -7.75947 0.938293 5.60832
                CHANNELS 3 Zrotation Xrotation Yrotation
                JOINT rIndex2
                {
                  OFFSET -2.54057 -0.884171 1.56538
                  CHANNELS 3 Zrotation Xrotation Yrotation
                  End Site
                  {
                    OFFSET -1.62519 -0.234802 1.16502
                  }
                }
              }
              JOINT rMid1
              {
                OFFSET -8.24714 1.18213 3.41376
                CHANNELS 3 Zrotation Xrotation Yrotation
                JOINT rMid2
                {
                  OFFSET -3.10165 -0.590103 1.0647
                  CHANNELS 3 Zrotation Xrotation Yrotation
                  End Site
                  {
                    OFFSET -2.48547 -0.328903 0.83742
                  }
                }
              }
              JOINT rRing1
              {
                OFFSET -8.82822 0.546677 1.51678
                CHANNELS 3 Zrotation Xrotation Yrotation
                JOINT rRing2
                {
                  OFFSET -2.60934 -0.819778 -0.0198488
                  CHANNELS 3 Zrotation Xrotation Yrotation
                  End Site
                  {
                    OFFSET -2.33842 -0.294052 0.168128
                  }
                }
              }
              JOINT rPinky1
              {
                OFFSET -8.27202 -0.0477905 -0.4584
                CHANNELS 3 Zrotation Xrotation Yrotation
                JOINT rPinky2
                {
                  OFFSET -1.82734 -0.647385 -0.700984
                  CHANNELS 3 Zrotation Xrotation Yrotation
                  End Site
                  {
                    OFFSET -1.69225 -0.51767 -0.607171
                  }
                }
              }
            }
          }
        }
      }
      JOINT lCollar
      {
        OFFSET 2.68224 19.2634 -4.8768
        CHANNELS 3 Zrotation Xrotation Yrotation
        JOINT lShldr
        {
          OFFSET 8.77824 -1.95073 1.46304
          CHANNELS 3 Zrotation Xrotation Yrotation
          JOINT lForeArm
          {
            OFFSET 28.1742 -1.7115 0.48768
            CHANNELS 3 Zrotation Xrotation Yrotation
            JOINT lHand
            {
              OFFSET 22.5879 0.773209 7.07136
              CHANNELS 3 Zrotation Xrotation Yrotation
              JOINT lThumb1
              {
                OFFSET 1.2192 -0.487915 3.41376
                CHANNELS 3 Zrotation Xrotation Yrotation
                JOINT lThumb2
                {
                  OFFSET 3.37035 -0.52449 3.41376
                  CHANNELS 3 Zrotation Xrotation Yrotation
                  End Site
                  {
                    OFFSET 1.78271 -1.18214 1.43049
                  }
                }
              }
              JOINT lIndex1
              {
                OFFSET 7.75947 0.938293 5.60832
                CHANNELS 3 Zrotation Xrotation Yrotation
                JOINT lIndex2
                {
                  OFFSET 2.54057 -0.884171 1.56538
                  CHANNELS 3 Zrotation Xrotation Yrotation
                  End Site
                  {
                    OFFSET 1.62519 -0.234802 1.16502
                  }
                }
              }
              JOINT lMid1
              {
                OFFSET 8.24714 1.18213 3.41376
                CHANNELS 3 Zrotation Xrotation Yrotation
                JOINT lMid2
                {
                  OFFSET 3.10165 -0.590103 1.0647
                  CHANNELS 3 Zrotation Xrotation Yrotation
                  End Site
                  {
                    OFFSET 2.48547 -0.328903 0.83742
                  }
                }
              }
              JOINT lRing1
              {
                OFFSET 8.82822 0.546677 1.51678
                CHANNELS 3 Zrotation Xrotation Yrotation
                JOINT lRing2
                {
                  OFFSET 2.60934 -0.819778 -0.0198488
                  CHANNELS 3 Zrotation Xrotation Yrotation
                  End Site
                  {
                    OFFSET 2.33842 -0.294052 0.168128
                  }
                }
              }
              JOINT lPinky1
              {
                OFFSET 8.27202 -0.0477905 -0.4584
                CHANNELS 3 Zrotation Xrotation Yrotation
                JOINT lPinky2
                {
                  OFFSET 1.82734 -0.647385 -0.700984
                  CHANNELS 3 Zrotation Xrotation Yrotation
                  End Site
                  {
                    OFFSET 1.69225 -0.51767 -0.607171
                  }
                }
              }
            }
          }
        }
      }
    }
  }
  JOINT rButtock
  {
    OFFSET -8.77824 4.35084 1.2192
    CHANNELS 3 Zrotation Xrotation Yrotation
    JOINT rThigh
    {
      OFFSET 0 -1.70687 -2.19456
      CHANNELS 3 Zrotation Xrotation Yrotation
      JOINT rShin
      {
        OFFSET 0 -36.8199 0.73152
        CHANNELS 3 Zrotation Xrotation Yrotation
        JOINT rFoot
        {
          OFFSET 0.73152 -45.1104 -5.12064
          CHANNELS 3 Zrotation Xrotation Yrotation
          End Site
          {
            OFFSET -1.1221 -3.69964 12.103
          }
        }
      }
    }
  }
  JOINT lButtock
  {
    OFFSET 8.77824 4.35084 1.2192
    CHANNELS 3 Zrotation Xrotation Yrotation
    JOINT lThigh
    {
      OFFSET 0 -1.70687 -2.19456
      CHANNELS 3 Zrotation Xrotation Yrotation
      JOINT lShin
      {
        OFFSET 0 -36.8199 0.73152
        CHANNELS 3 Zrotation Xrotation Yrotation
        JOINT lFoot
        {
          OFFSET -0.73152 -45.1104 -5.12064
          CHANNELS 3 Zrotation Xrotation Yrotation
          End Site
          {
            OFFSET 1.1221 -3.69964 12.103
          }
        }
      }
    }
  }
}
MOTION
Frames:	7
Frame Time:	0.00833333
-4.54018 84.2564 36.2203 0.0 0.0 0.0 -1.24153 -0.0039811 -0.0340793 -0.342499 -0.00249239 -0.059328 -2.51744e-14 0.0 3.72721e-17 -7.58674e-14 3.18055e-15 1.21134e-16 -0.0 0.0 0.0 -0.0 0.0 0.0 -1.23266e-14 -3.61074e-17 2.48481e-16 -2.65271e-13 -8.88319e-16 3.97569e-16 -4.55475e-12 1.33742e-12 2.54444e-14 -5.21805e-11 -1.50815e-12 4.13472e-14 -1.23073e-10 -3.69958e-13 1.90833e-13 -2.12558e-10 -6.39292e-13 3.36344e-13 -1.23068e-10 -3.7133e-13 1.84472e-13 7.73091 5.47488 0.417314 -1.23075e-10 -3.70535e-13 1.94014e-13 2.90554 0.965183 0.102902 -1.23071e-10 -3.70137e-13 1.93219e-13 10.2786 0.731801 0.0259123 -1.23083e-10 -3.68149e-13 2.06736e-13 2.22167 -0.733487 -0.20892 -1.26217e-14 -3.51367e-17 -1.98785e-16 -2.65249e-13 -1.17407e-15 -7.95139e-16 -4.56146e-12 -1.3905e-12 6.36111e-14 -5.21536e-11 1.2184e-12 3.49861e-14 -1.23027e-10 -3.6982e-13 2.00375e-13 -2.12454e-10 -6.36111e-13 3.4509e-13 -1.23026e-10 -3.71727e-13 2.03556e-13 -7.73091 5.47488 -0.417314 -1.23025e-10 -3.70435e-13 1.97194e-13 -2.90554 0.965183 -0.102902 -1.23028e-10 -3.70435e-13 1.94014e-13 -10.2786 0.731801 -0.0259123 -1.23015e-10 -3.65366e-13 1.84472e-13 -2.22167 -0.733487 0.20892 -2.03217e-16 0.0 -3.88251e-19 -0.453594 -1.92099 -0.00953123 -0.0091574 -2.07857 -0.075568 -0.487713 3.99699 0.136691 2.03217e-16 0.0 3.88251e-19 -1.43703 -5.97118 0.12965 -0.00126589 5.25801 -0.045429 0.507566 0.710718 -0.0722436
-6.52487 84.614 36.3968 -4.5047 -3.4406 -0.972 -1.58795 -0.0533517 -0.0481321 -0.485823 0.00122232 -0.0985787 0.0309653 4.66795 0.0422526 -0.116377 -9.47494 0.0762935 -0.0 0.0 0.0 -0.0 0.0 0.0 -4.01971e-14 6.36525e-15 1.84303e-15 -4.32043 -0.55568 0.399077 0.620921 0.319819 -0.805629 -0.00604306 -0.333074 -0.0463145 -4.30147e-10 9.45254e-11 -9.92168e-11 -7.43089e-10 1.63333e-10 -1.71508e-10 -4.30143e-10 9.45245e-11 -9.92242e-11 7.73091 5.47488 0.417314 -4.30149e-10 9.45248e-11 -9.92126e-11 2.90554 0.965183 0.102902 -4.30145e-10 9.45254e-11 -9.92137e-11 10.2786 0.731801 0.0259123 -4.30157e-10 9.45275e-11 -9.92009e-11 2.22167 -0.733487 -0.20892 -4.04026e-14 6.36752e-15 1.46487e-15 4.36355 -0.630853 -0.226472 -0.505873 0.242039 0.699618 0.00199877 -0.191192 0.0267762 -4.17588e-10 4.56622e-11 -1.33346e-10 -7.21246e-10 7.87573e-11 -2.30533e-10 -4.17588e-10 4.5661e-11 -1.33342e-10 -7.73091 5.47488 -0.417314 -4.17586e-10 4.56619e-11 -1.33349e-10 -2.90554 0.965183 -0.102902 -4.17589e-10 4.56618e-11 -1.33351e-10 -10.2786 0.731801 -0.0259123 -4.17579e-10 4.56657e-11 -1.3336e-10 -2.22167 -0.733487 0.20892 -2.03217e-16 0.0 -3.88251e-19 -6.38197 -1.94661 -0.00689865 -0.0027914 -2.07948 -0.0192754 -0.455261 4.01165 0.132175 2.03217e-16 0.0 3.88251e-19 0.423234 -3.27724 -2.51975 -0.0153071 5.37827 -0.0898361 -0.226286 -3.50171 6.32452
-6.52108 84.6106 36.3893 -4.4887 -3.4471 -0.9421 -1.9965 -0.117563 -0.0930983 -0.63644 0.0350027 -0.14851 0.0723841 9.78118 0.113957 -0.271055 -19.9331 0.213462 -0.0 0.0 0.0 -0.0 0.0 0.0 -6.98984e-14 1.29535e-14 2.93518e-15 -10.1706 -1.48159 1.06451 1.67577 0.852335 -2.14855 -0.0173116 -0.888196 -0.123518 -7.76614e-10 2.0346e-10 -2.15571e-10 -1.34176e-09 3.51586e-10 -3.72563e-10 -7.76611e-10 2.0346e-10 -2.15579e-10 7.73091 5.47488 0.417314 -7.76616e-10 2.03459e-10 -2.15565e-10 2.90554 0.965183 0.102902 -7.76612e-10 2.0346e-10 -2.15567e-10 10.2786 0.731801 0.0259123 -7.76623e-10 2.03462e-10 -2.15555e-10 2.22167 -0.733487 -0.20892 -7.00071e-14 1.29571e-14 2.63079e-15 10.2917 -1.68219 -0.60415 -1.36213 0.645143 1.86575 0.00572717 -0.509845 0.0714056 -7.49693e-10 8.62851e-11 -2.88538e-10 -1.29493e-09 1.4876e-10 -4.98791e-10 -7.49694e-10 8.62847e-11 -2.88533e-10 -7.73091 5.47488 -0.417314 -7.49691e-10 8.62853e-11 -2.88541e-10 -2.90554 0.965183 -0.102902 -7.49694e-10 8.6285e-11 -2.88542e-10 -10.2786 0.731801 -0.0259123 -7.49687e-10 8.62877e-11 -2.88552e-10 -2.22167 -0.733487 0.20892 -2.03217e-16 0.0 -3.88251e-19 -12.6492 -1.97364 -0.0041126 0.00393202 -2.08044 0.0401607 -0.420975 4.02712 0.127404 2.03217e-16 0.0 3.88251e-19 2.66795 -0.439904 -5.30646 -0.0300186 5.51005 -0.137355 0.0158247 -7.78145 13.1761
-6.5214 84.6096 36.3866 -4.4852 -3.4624 -0.9315 -2.28086 -0.152093 -0.0762377 -0.772457 0.00865171 -0.17708 0.0717033 14.0038 0.130207 -0.264615 -28.4246 0.256706 -0.0 0.0 0.0 -0.0 0.0 0.0 -9.59382e-14 1.9168e-14 5.03212e-15 -12.9381 -1.66672 1.19768 1.88974 0.958698 -2.41719 -0.0197448 -0.99922 -0.138962 -1.0443e-09 2.84316e-10 -2.98032e-10 -1.80415e-09 4.91277e-10 -5.15196e-10 -1.04429e-09 2.84316e-10 -2.98042e-10 7.73091 5.47488 0.417314 -1.0443e-09 2.84315e-10 -2.98026e-10 2.90554 0.965183 0.102902 -1.04429e-09 2.84316e-10 -2.98027e-10 10.2786 0.731801 0.0259123 -1.0443e-09 2.84319e-10 -2.98016e-10 2.22167 -0.733487 -0.20892 -9.59644e-14 1.91728e-14 4.79219e-15 13.0757 -1.89244 -0.679747 -1.53535 0.725683 2.099 0.00653242 -0.573575 0.0803322 -1.00671e-09 1.37726e-10 -4.00438e-10 -1.73883e-09 2.37544e-10 -6.92288e-10 -1.00671e-09 1.37726e-10 -4.00432e-10 -7.73091 5.47488 -0.417314 -1.00671e-09 1.37727e-10 -4.00441e-10 -2.90554 0.965183 -0.102902 -1.00671e-09 1.37726e-10 -4.0044e-10 -10.2786 0.731801 -0.0259123 -1.00671e-09 1.37728e-10 -4.0045e-10 -2.22167 -0.733487 0.20892 -2.03217e-16 0.0 -3.88251e-19 -18.2387 -1.99785 -0.00163325 0.00994595 -2.08129 0.09331 -0.390352 4.04097 0.123143 2.03217e-16 0.0 3.88251e-19 4.88863 2.08171 -7.80997 -0.0428275 5.61877 -0.178705 1.11621 -11.3229 19.4764
-6.52136 84.6099 36.3903 -4.4794 -3.481 -0.9486 -2.25466 -0.112416 0.0951903 -0.872004 -0.168028 -0.152245 -2.44432e-13 16.0 5.22671e-14 -2.52294e-10 -32.0 -3.7109e-10 -0.0 0.0 0.0 -0.0 0.0 0.0 -1.12824e-13 2.44478e-14 9.64106e-15 -8.0 4.72161e-09 2.60833e-10 -3.6149e-11 3.5491e-11 -1.152e-11 -4.77603e-10 1.00266e-10 -1.23475e-10 -1.11501e-09 2.94977e-10 -2.95763e-10 -1.92585e-09 5.09566e-10 -5.11771e-10 -1.11501e-09 2.94977e-10 -2.95772e-10 7.73091 5.47488 0.417314 -1.11502e-09 2.94976e-10 -2.95757e-10 2.90554 0.965183 0.102902 -1.11501e-09 2.94977e-10 -2.95758e-10 10.2786 0.731801 0.0259123 -1.11502e-09 2.94979e-10 -2.95747e-10 2.22167 -0.733487 -0.20892 -1.12804e-13 2.44538e-14 9.44227e-15 8.0 4.72161e-09 -2.60833e-10 -4.35469e-11 4.51679e-12 -1.49581e-11 -4.52374e-10 9.53035e-11 -1.69978e-10 -1.076e-09 2.16212e-10 -4.04105e-10 -1.85826e-09 3.73279e-10 -6.98884e-10 -1.07601e-09 2.16213e-10 -4.04099e-10 -7.73091 5.47488 -0.417314 -1.076e-09 2.16212e-10 -4.04109e-10 -2.90554 0.965183 -0.102902 -1.07601e-09 2.16212e-10 -4.04107e-10 -10.2786 0.731801 -0.0259123 -1.076e-09 2.16213e-10 -4.04118e-10 -2.22167 -0.733487 0.20892 -2.03217e-16 0.0 -3.88251e-19 -22.1337 -2.01498 7.91795e-05 0.0141824 -2.08189 0.130742 -0.368892 4.0508 0.12016 2.03217e-16 0.0 3.88251e-19 6.53023 3.85065 -9.59462 -0.051321 5.66981 -0.204591 2.39981 -13.5934 24.0517
-6.52347 84.6182 36.4535 -4.5324 -3.5848 -1.0322 -1.71411 0.0525964 0.553408 -0.925132 -0.575808 -0.0328972 -0.201234 14.5852 -0.37544 0.76456 -27.974 -0.734953 -0.0 0.0 0.0 -0.0 0.0 0.0 -1.20414e-13 3.00823e-14 1.9854e-14 10.2404 4.8147 -3.45955 -5.00342 -2.7501 6.98843 0.0297115 2.8823 0.401312 -8.5258e-10 1.71434e-10 -1.37271e-10 -1.47104e-09 2.95714e-10 -2.39314e-10 -8.52579e-10 1.71433e-10 -1.37279e-10 7.73091 5.47488 0.417314 -8.52581e-10 1.71432e-10 -1.37266e-10 2.90554 0.965183 0.102902 -8.52578e-10 1.71432e-10 -1.37267e-10 10.2786 0.731801 0.0259123 -8.52587e-10 1.71433e-10 -1.37256e-10 2.22167 -0.733487 -0.20892 -1.20397e-13 3.00897e-14 1.96614e-14 -10.5105 5.44948 1.96202 4.12757 -2.07922 -6.05677 -0.00974775 1.64984 -0.231162 -8.32176e-10 3.76462e-10 -2.09475e-10 -1.43632e-09 6.50732e-10 -3.63149e-10 -8.32183e-10 3.76463e-10 -2.09469e-10 -7.73091 5.47488 -0.417314 -8.32177e-10 3.7646e-10 -2.09478e-10 -2.90554 0.965183 -0.102902 -8.32178e-10 3.76461e-10 -2.09476e-10 -10.2786 0.731801 -0.0259123 -8.32173e-10 3.76462e-10 -2.09489e-10 -2.22167 -0.733487 0.20892 -2.03217e-16 0.0 -3.88251e-19 -23.6566 -2.02256 0.000712137 0.0160175 -2.08215 0.146955 -0.360339 4.05518 0.11898 2.03217e-16 0.0 3.88251e-19 7.11183 4.64242 -10.3982 -0.0537998 5.63913 -0.207465 3.1271 -14.5445 26.0777
-6.53814 84.6044 36.5714 -4.1222 -3.8766 -0.9696 -0.81453 0.306052 1.21314 -0.941968 -1.14767 0.153054 -0.557867 10.7476 -0.910008 2.19287 -18.5505 -1.68464 -0.0 0.0 0.0 -0.0 0.0 0.0 -1.21195e-13 3.58908e-14 3.39704e-14 38.8437 11.7428 -8.66616 -11.1218 -6.51409 17.2972 1.52745e-05 7.09314 0.994084 -3.54914e-10 -4.62592e-11 1.31019e-10 -6.09178e-10 -8.09926e-11 2.22234e-10 -3.54913e-10 -4.62619e-11 1.31012e-10 7.73091 5.47488 0.417314 -3.54914e-10 -4.62625e-11 1.3102e-10 2.90554 0.965183 0.102902 -3.54912e-10 -4.62628e-11 1.3102e-10 10.2786 0.731801 0.0259123 -3.5492e-10 -4.6263e-11 1.31032e-10 2.22167 -0.733487 -0.20892 -1.21219e-13 3.58997e-14 3.37592e-14 -39.1364 13.3708 4.94002 9.37485 -4.97199 -14.9545 6.09696e-06 4.05952 -0.570005 -3.67083e-10 5.93024e-10 1.24569e-10 -6.31825e-10 1.02579e-09 2.13266e-10 -3.67093e-10 5.93024e-10 1.24575e-10 -7.73091 5.47488 -0.417314 -3.67087e-10 5.9302e-10 1.24566e-10 -2.90554 0.965183 -0.102902 -3.67085e-10 5.93022e-10 1.2457e-10 -10.2786 0.731801 -0.0259123 -3.67079e-10 5.93022e-10 1.24553e-10 -2.22167 -0.733487 0.20892 -2.03217e-16 0.0 -3.88251e-19 -23.485 -2.02332 0.000574296 0.0161328 -2.08217 0.147974 -0.361002 4.05566 0.119087 2.03217e-16 0.0 3.88251e-19 6.88137 4.74487 -10.4909 -0.0519797 5.55015 -0.193968 3.25665 -14.6759 26.2196
